<svg xmlns="http://www.w3.org/2000/svg" viewBox="0 0 100 100" width="100" height="100">
  <!-- fundo -->
  <rect width="100" height="100" rx="18" fill="#241608"/>
  <!-- escudo -->
  <path d="M50 7 L89 21 V54 C89 79 71 93 50 99 C29 93 11 79 11 54 V21 Z"
        fill="none" stroke="#e6b24a" stroke-width="5"/>
  <!-- picaretas cruzadas -->
  <g fill="#e6b24a">
    <g transform="rotate(45 50 53)">
      <rect x="47.6" y="28" width="4.8" height="50" rx="2.4"/>
      <path d="M26 40 Q50 18 74 40 Q50 30 26 40 Z"/>
    </g>
    <g transform="rotate(-45 50 53)">
      <rect x="47.6" y="28" width="4.8" height="50" rx="2.4"/>
      <path d="M26 40 Q50 18 74 40 Q50 30 26 40 Z"/>
    </g>
    <circle cx="50" cy="53" r="3.6" fill="#241608"/>
    <circle cx="50" cy="53" r="2"/>
  </g>
</svg>
